<svg width="165" height="104" viewBox="0 0 165 104" fill="none" xmlns="http://www.w3.org/2000/svg">
<path fill-rule="evenodd" clip-rule="evenodd" d="M0.717317 0.747277C1.68532 -0.237272 3.26818 -0.250685 4.25272 0.717317L38.4471 34.337C38.5961 34.4835 38.8205 34.5219 39.0098 34.4332L74.0115 18.0296C76.6544 16.791 79.8044 17.8325 81.1881 20.4023L104.027 62.8167C104.127 63.0029 104.333 63.1059 104.543 63.0739L123.968 60.0994C125.769 59.8235 127.591 60.4581 128.831 61.7938L161.332 96.799C162.272 97.8108 162.213 99.3926 161.201 100.332C160.189 101.272 158.607 101.213 157.668 100.201L125.167 65.1958C125.054 65.0744 124.888 65.0167 124.724 65.0418L105.299 68.0163C103 68.3684 100.727 67.2356 99.6243 65.1872L76.7858 22.7728C76.66 22.5391 76.3736 22.4445 76.1333 22.5571L41.1316 38.9607C39.0499 39.9363 36.581 39.5141 34.9416 37.9024L0.747277 4.28268C-0.237272 3.31468 -0.250685 1.73183 0.717317 0.747277Z" fill="#DBDCE1"/>
<path d="M165 96C165 100.418 161.418 104 157 104C152.582 104 149 100.418 149 96C149 91.5817 152.582 88 157 88C161.418 88 165 91.5817 165 96Z" fill="#FB002C"/>
</svg>
