<?xml version="1.0" encoding="utf-8"?>
<!-- Generator: Adobe Illustrator 27.0.0, SVG Export Plug-In . SVG Version: 6.00 Build 0)  -->
<svg version="1.1" id="Слой_1" xmlns="http://www.w3.org/2000/svg" xmlns:xlink="http://www.w3.org/1999/xlink" x="0px" y="0px"
	 viewBox="0 0 371 140" style="enable-background:new 0 0 371 140;" xml:space="preserve">
<style type="text/css">
	.st0{fill-rule:evenodd;clip-rule:evenodd;fill:#FB002C;}
	.st1{fill-rule:evenodd;clip-rule:evenodd;}
</style>
<path class="st0" d="M22.7,1.5h45.9v5H22.7C12.9,6.5,5,14.4,5,24.2v12.2H0V24.2C0,11.7,10.1,1.5,22.7,1.5z"/>
<path class="st1" d="M5.3,66.2h2.6h17.6c1.9,0,3.7,0.7,5,2.1c1.4,1.4,2.1,3.1,2.1,5c0,2-0.7,3.7-2.1,5.1c-1.4,1.4-3.1,2.1-5,2.1H7.8
	H5.3v-2.6v-9.1V66.2z M133.2,41.2c0,0.1,0.1,0.1,0.1,0.2C133.3,41.3,133.3,41.2,133.2,41.2L133.2,41.2z M5.3,46.6h2.6h11.1
	c1.9,0,3.7,0.7,5,2.1c1.4,1.4,2.1,3.1,2.1,5c0,2-0.7,3.7-2.1,5.1c-1.4,1.4-3.1,2.1-5,2.1H7.8H5.3v-2.6v-9.1V46.6z M0.8,42.2
	L0.8,42.2C0.2,42.7,0,43.3,0,44v39.1c0,0.8,0.2,1.4,0.8,1.9c0.5,0.5,1.1,0.8,1.9,0.8h22.8c3.4,0,6.3-1.2,8.8-3.6
	c2.5-2.5,3.6-5.3,3.6-8.8c0-2.3-0.6-4.5-1.8-6.5l0,0c-1.2-1.9-2.7-3.4-4.7-4.5l-2.2-1.2l1.1-2.2c0.8-1.7,1.2-3.4,1.2-5.2
	c0-3.4-1.2-6.3-3.6-8.8c-2.5-2.5-5.3-3.6-8.8-3.6H2.6C1.9,41.4,1.3,41.6,0.8,42.2L0.8,42.2z M85.2,45.8c0.5-0.5,0.8-1.1,0.8-1.8
	c0-0.7-0.2-1.3-0.8-1.8c-0.6-0.6-1.1-0.8-1.9-0.8H50.8c-0.8,0-1.3,0.2-1.9,0.8l0,0l0,0c-0.5,0.5-0.8,1.1-0.8,1.8v39.1
	c0,0.8,0.2,1.4,0.8,1.9c0.5,0.5,1.1,0.8,1.9,0.8h32.5c0.7,0,1.3-0.2,1.9-0.8c0.5-0.5,0.8-1.1,0.8-1.9c0-0.7-0.2-1.3-0.8-1.8
	c-0.6-0.5-1.1-0.8-1.9-0.8H56h-2.6v-2.6v-9.1v-2.6H56h20.8c0.7,0,1.3-0.2,1.9-0.8c0.5-0.5,0.8-1.1,0.8-1.8c0-0.8-0.2-1.3-0.8-1.9
	c-0.6-0.5-1.1-0.8-1.9-0.8H56h-2.6v-2.6v-9.1v-2.6H56h27.4C84.1,46.6,84.6,46.4,85.2,45.8z M124.1,68.3c1.4,1.4,2.1,3.1,2.1,5
	c0,2-0.7,3.7-2.1,5.1c-1.4,1.4-3.1,2.1-5,2.1H96.3c-0.8,0-1.4,0.2-1.9,0.8c-0.5,0.5-0.8,1.1-0.8,1.8c0,0.8,0.2,1.4,0.8,1.9
	c0.5,0.5,1.1,0.8,1.9,0.8h22.8c3.4,0,6.3-1.2,8.8-3.6c2.5-2.5,3.6-5.3,3.6-8.8s-1.2-6.3-3.6-8.8c-2.5-2.5-5.3-3.6-8.8-3.6h-13
	c-1.9,0-3.7-0.7-5-2.1c-1.4-1.4-2.1-3.1-2.1-5.1c0-1.9,0.7-3.7,2.1-5c1.4-1.4,3.1-2.1,5-2.1h22.8c0.7,0,1.3-0.2,1.9-0.8
	c0.5-0.5,0.8-1.1,0.8-1.8c0-0.7-0.2-1.3-0.8-1.8c-0.6-0.6-1.1-0.8-1.9-0.8H106c-3.4,0-6.3,1.2-8.8,3.6c-2.5,2.5-3.6,5.3-3.6,8.8
	c0,3.5,1.2,6.3,3.6,8.7l0,0c2.5,2.5,5.3,3.6,8.8,3.6h13C121,66.2,122.7,66.9,124.1,68.3z M174.9,45.8c0.5-0.5,0.8-1.1,0.8-1.8
	c0-0.7-0.2-1.3-0.8-1.8c-0.6-0.6-1.1-0.8-1.9-0.8h-32.5c-0.8,0-1.3,0.2-1.9,0.8l0,0l0,0c-0.5,0.5-0.8,1.1-0.8,1.8s0.2,1.3,0.8,1.8
	c0.5,0.5,1.1,0.8,1.9,0.8h11h2.6v2.6v33.9c0,0.8,0.2,1.3,0.8,1.9c0.6,0.5,1.1,0.8,1.9,0.8c0.7,0,1.3-0.2,1.8-0.8
	c0.5-0.5,0.8-1.1,0.8-1.9V49.2v-2.6h2.6H173C173.8,46.6,174.4,46.4,174.9,45.8z M7.8,121.7H5.3v2.6v9.1v2.6h2.6h17.6
	c1.9,0,3.7-0.7,5-2.1c1.4-1.4,2.1-3.1,2.1-5.1c0-1.9-0.7-3.7-2.1-5c-1.4-1.4-3.1-2.1-5-2.1H7.8z M7.8,102.1H5.3v2.6v9.1v2.6h2.6
	h11.1c1.9,0,3.7-0.7,5-2.1c1.4-1.4,2.1-3.1,2.1-5.1c0-1.9-0.7-3.7-2.1-5c-1.4-1.4-3.1-2.1-5-2.1H7.8z M0.8,96.5L0.8,96.5L0.8,96.5
	c0.5-0.6,1.1-0.8,1.9-0.8h16.3c3.4,0,6.3,1.2,8.8,3.6c2.5,2.5,3.6,5.3,3.6,8.8c0,1.8-0.4,3.6-1.2,5.2l-1.1,2.2l2.2,1.2
	c2,1.1,3.6,2.5,4.7,4.5l0,0c1.2,2,1.8,4.1,1.8,6.5c0,3.4-1.2,6.3-3.6,8.8c-2.5,2.5-5.3,3.6-8.8,3.6H2.6c-0.8,0-1.4-0.2-1.9-0.8
	c-0.5-0.5-0.8-1.1-0.8-1.9V98.3C0,97.6,0.2,97,0.8,96.5z M65.7,137.4c0,0.8-0.2,1.3-0.8,1.9c-0.6,0.5-1.1,0.8-1.9,0.8
	c-0.7,0-1.3-0.2-1.8-0.8c-0.5-0.5-0.8-1.1-0.8-1.9v-11.5v-0.7l-0.4-0.6L44.6,99.7l0,0c-0.4-0.6-0.5-1.2-0.3-2
	c0.2-0.7,0.5-1.2,1.2-1.6c0.7-0.4,1.3-0.5,2-0.3c0.7,0.2,1.2,0.5,1.6,1.2l0,0l11.9,19l2.2,3.5l2.2-3.5l11.9-19l0,0
	c0.4-0.6,0.9-1,1.6-1.2c0.8-0.2,1.4-0.1,2,0.3c0.6,0.4,1,0.9,1.2,1.6c0.2,0.7,0.1,1.3-0.3,2l0,0l0,0l-15.5,24.8l-0.4,0.6v0.7V137.4z
	"/>
<path class="st0" d="M-82,2.3 M215.5,104.6v12.7c0,9.8-7.9,17.7-17.7,17.7h-45.6v5h45.6c12.5,0,22.7-10.1,22.7-22.7v-12.7H215.5z"/>
<path class="st0" d="M152.2,6.5v-5h45.6c12.5,0,22.7,10.1,22.7,22.7v12.2h-5V24.2c0-9.8-7.9-17.7-17.7-17.7H152.2z"/>
</svg>
