<?xml version="1.0" encoding="UTF-8"?>
<svg id="_Слой_1" data-name="Слой 1" xmlns="http://www.w3.org/2000/svg" viewBox="0 0 651.03 241.7">
  <defs>
    <style>
      .cls-1 {
        fill: #fb002c;
      }
    </style>
  </defs>
  <path class="cls-1" d="M0,179.37H8.68c0,1.04,0,1.86,0,2.68,.03,7.01-.09,14.03,.12,21.04,.45,14.74,11.82,27.35,26.36,29.39,1.87,.26,3.77,.39,5.65,.39,25.46,.02,50.92,.02,76.37,.02,.91,0,1.81,0,2.83,0v8.82H37.9c-.45-.13-.89-.33-1.35-.37-16.4-1.44-29.79-12.09-34.72-27.75C1.04,211.08,.6,208.47,0,205.9c0-8.84,0-17.69,0-26.53Z"/>
  <path class="cls-1" d="M531.43,241.7v-8.82h2.63c25.47,0,50.93,0,76.4,0,18.08,0,31.79-13.73,31.79-31.81,0-6.38,0-12.77,0-19.15,0-.75,0-1.51,0-2.54h8.77v25.69c-.14,.45-.36,.89-.41,1.34-1.81,16.61-14.21,30.45-30.56,34.05-2.29,.5-4.62,.83-6.93,1.24h-81.69Z"/>
  <path class="cls-1" d="M0,35.36c1.01-3.61,1.64-7.38,3.11-10.79C9.05,10.84,19.5,2.72,34.34,.44,36.61,.09,38.95,.03,41.25,.03,66.58,0,91.91,0,117.24,0c.91,0,1.81,0,3.01,0,0,2.64,.04,5.15-.05,7.65-.01,.34-.63,.83-1.05,.95-.58,.17-1.25,.05-1.88,.05-25.68,0-51.36-.02-77.04,0-15.13,.02-27.49,9.83-30.79,24.53-.59,2.64-.69,5.42-.73,8.14-.1,6.44-.03,12.89-.03,19.71H0C0,52.48,0,43.92,0,35.36Z"/>
  <path class="cls-1" d="M651.03,61.04h-8.77c0-4.31,.05-8.36-.01-12.41-.07-4.48,.25-9.03-.43-13.43-2.43-15.82-15.16-26.52-31.16-26.54-25.61-.02-51.22-.03-76.82,.04-2.12,0-2.9-.5-2.69-2.67,.19-1.93,.04-3.88,.04-6.03,.97,0,1.65,0,2.34,0,25.89,0,51.78-.02,77.66,0,19.62,.02,36.09,14.05,39.27,33.38,.16,.94,.38,1.87,.57,2.8v24.85Z"/>
  <path d="M478.77,116.82c1.16,.63,2.24,1.23,3.34,1.81,8.3,4.4,12.81,12.87,11.8,22.14-.94,8.63-7.51,16.19-16.2,18.43-1.88,.48-3.88,.7-5.82,.71-12.84,.06-25.68,.04-38.52,.03-4.2,0-5.87-1.67-5.87-5.86,0-22.03,0-44.07,0-66.1,0-4.41,1.54-5.94,5.93-5.94,9.19,0,18.39-.01,27.58,0,15.83,.02,26.25,16.41,19.6,30.83-.58,1.26-1.17,2.53-1.83,3.96Zm-41.7,8.84v24.75c.46,.06,.73,.12,1.01,.12,11.43,0,22.85,.02,34.28-.01,1.1,0,2.24-.18,3.3-.49,6.02-1.77,9.85-7.67,8.96-13.69-.91-6.11-6.27-10.76-12.61-10.78-11.08-.04-22.15-.01-33.23,0-.54,0-1.09,.07-1.71,.11Zm-.06-9.52c.46,.05,.81,.13,1.15,.13,7.51,0,15.01,.01,22.52-.01,.97,0,1.97-.09,2.91-.33,6.24-1.56,10.37-7.37,9.63-13.45-.78-6.39-5.93-11.09-12.43-11.16-7.5-.08-15.01-.02-22.52-.01-.4,0-.8,.09-1.26,.15v24.67Z"/>
  <path d="M130.76,116.46c3.07,2.21,6.24,3.89,8.66,6.32,6.76,6.81,8.31,15.07,4.64,23.81-3.61,8.6-10.57,13.15-19.93,13.29-13.19,.19-26.38,.07-39.57,.04-3.43,0-5.15-1.79-5.15-5.24-.01-22.45-.01-44.91,0-67.36,0-3.63,1.67-5.29,5.24-5.29,9.47,0,18.95-.03,28.42,0,15.38,.05,25.82,16.19,19.62,30.29-.65,1.47-1.35,2.92-1.91,4.14Zm-41.98,33.9c.41,.08,.62,.16,.82,.16,11.65,.01,23.3,.09,34.95-.06,1.94-.02,4.05-.71,5.75-1.68,5.08-2.88,7.29-8.61,5.77-14.08-1.48-5.32-6.48-9.13-12.24-9.15-10.39-.05-20.77-.01-31.16-.01-1.25,0-2.5,0-3.9,0v24.83Zm0-58.98v24.77c8.63,0,17.12,.29,25.58-.1,6.03-.28,10.7-6.1,10.71-12.28,0-6.12-4.75-12.03-10.72-12.3-8.46-.37-16.95-.09-25.57-.09Z"/>
  <path d="M173.27,116.27c.91,0,1.73,0,2.55,0,12.7,0,25.4,0,38.1,0,2.53,0,4.25,1.3,4.83,3.53,.52,2.01-.37,4.27-2.26,5.16-.9,.42-2.02,.54-3.04,.55-12.56,.04-25.12,.02-37.68,.02-.76,0-1.52,0-2.45,0v25h2.64c15.93,0,31.86,0,47.79,0,.77,0,1.55-.01,2.31,.07,2.6,.29,4.24,2.09,4.24,4.61,0,2.43-1.76,4.39-4.24,4.68-.55,.07-1.12,.03-1.68,.03-18.17,0-36.35,0-54.52,0-4.48,0-6.03-1.57-6.03-6.09,0-22.03,0-44.07,0-66.1,0-4.21,1.49-5.71,5.67-5.71,18.6,0,37.19,.02,55.79-.02,2.14,0,3.73,.77,4.6,2.66,.79,1.7,.81,3.68-.67,4.86-1.2,.96-2.97,1.68-4.5,1.69-16.28,.12-32.56,.07-48.84,.07-.82,0-1.65,0-2.6,0v24.97Z"/>
  <path d="M284.42,82.03c6.88,0,13.75,0,20.63,0,3.11,0,5.04,1.77,5.07,4.62,.04,2.8-1.92,4.63-5.08,4.64-13.12,.02-26.25,0-39.37,.02-5.33,0-10.03,3.2-11.83,7.92-1.92,5.05-.53,10.46,3.67,14.1,2.08,1.81,4.53,2.84,7.29,2.86,7.93,.07,15.86,.06,23.79,.08,11.53,.02,20.88,9,21.54,20.69,.64,11.44-7.8,21.56-19.15,22.7-3.69,.37-7.42,.25-11.14,.27-10.18,.03-20.35,.02-30.53,0-3.49,0-5.43-1.58-5.54-4.39-.12-3.01,1.59-4.89,4.69-4.98,3.09-.08,6.17-.02,9.26-.02,10.18,0,20.35,.03,30.53-.01,5.98-.02,11.18-4.21,12.34-9.8,1.22-5.91-1.88-11.93-7.56-14.18-1.71-.68-3.68-.94-5.53-.97-7.44-.11-14.88-.03-22.31-.05-10.9-.03-20.43-8.78-21.39-19.28-1.27-13.89,8.96-22.92,18.35-24.02,3.81-.45,7.71-.17,11.56-.2,3.58-.02,7.16,0,10.74,0Z"/>
  <path d="M538.36,123.42c4.04-6.45,7.94-12.67,11.84-18.9,4.2-6.71,8.37-13.43,12.58-20.13,1.49-2.37,4.31-3.1,6.55-1.77,2.27,1.34,2.89,4.32,1.33,6.83-3.58,5.77-7.21,11.51-10.8,17.28-5.41,8.67-10.84,17.33-16.19,26.04-.47,.77-.64,1.84-.64,2.78-.05,6.31-.02,12.62-.03,18.94,0,3.41-1.76,5.4-4.76,5.45-2.65,.04-4.6-2.17-4.62-5.43-.05-6.38,.02-12.76-.05-19.15-.01-1.05-.32-2.24-.87-3.12-8.68-13.98-17.41-27.93-26.16-41.87-1.93-3.08-1.89-5.63,.27-7.33,2.36-1.86,5.34-1.29,7.01,1.38,7.73,12.34,15.46,24.69,23.18,37.03,.37,.59,.78,1.15,1.35,2Z"/>
  <path d="M359.14,91.3c0,1.07,0,1.89,0,2.72,0,20.21,0,40.41,0,60.62,0,3.82-2.79,6.06-6.15,4.99-2.02-.64-3.09-2.12-3.1-4.46-.03-5.12,0-10.24,0-15.37,0-15.23,0-30.45,0-45.68v-2.72c-.88-.04-1.61-.11-2.35-.11-7.16,0-14.31,.01-21.47-.02-2.33-.01-4.05-1.29-4.62-3.27-.58-2,.06-4.08,1.85-5.16,.84-.51,1.96-.79,2.95-.79,18.87-.05,37.75-.04,56.62-.03,2.89,0,4.94,1.96,4.91,4.61-.02,2.67-2.04,4.63-4.93,4.64-7.3,.03-14.59,.01-21.89,.01-.49,0-.97,0-1.81,0Z"/>
</svg>