<svg width="140" height="140" viewBox="0 0 140 140" fill="none" xmlns="http://www.w3.org/2000/svg">
<circle cx="70" cy="70" r="70" fill="#EFF0F2"/>
<path d="M52.1248 81.375H87.8748M63.4998 71.625V81.375M87.8748 76.5V86.25M52.1248 76.5V86.25M52.1248 70.2031C50.284 69.8357 48.5356 69.103 46.983 68.0481C45.4303 66.9933 44.1049 65.6379 43.0852 64.0619C42.0655 62.486 41.3721 60.7216 41.0461 58.873C40.7201 57.0245 40.7681 55.1293 41.1873 53.2996C41.6064 51.4699 42.3882 49.7429 43.4864 48.2206C44.5846 46.6983 45.9768 45.4116 47.5809 44.4367C49.185 43.4619 50.9682 42.8185 52.8252 42.5448C54.6823 42.271 56.5753 42.3724 58.3924 42.843C59.7054 41.1762 61.3797 39.8292 63.289 38.9036C65.1984 37.9781 67.293 37.4982 69.4148 37.5C71.5978 37.4981 73.751 38.006 75.703 38.9833C77.655 39.9605 79.3518 41.3801 80.6582 43.129C82.4787 42.5114 84.4066 42.2743 86.3225 42.4323C88.2384 42.5903 90.1015 43.1401 91.7962 44.0475C93.491 44.955 94.9813 46.2008 96.1748 47.7079C97.3684 49.2149 98.2397 50.9509 98.7349 52.8085C99.23 54.666 99.3385 56.6054 99.0534 58.5066C98.7684 60.4078 98.0959 62.2301 97.0778 63.8608C96.0596 65.4914 94.7174 66.8956 93.1344 67.9863C91.5513 69.077 89.7612 69.831 87.8748 70.2015V96C87.8748 96.862 87.5324 97.6886 86.9229 98.2981C86.3134 98.9076 85.4868 99.25 84.6248 99.25H55.3748C54.5129 99.25 53.6862 98.9076 53.0767 98.2981C52.4672 97.6886 52.1248 96.862 52.1248 96V70.2031Z" stroke="white" stroke-width="6.5" stroke-linecap="round" stroke-linejoin="round"/>
</svg>
