<svg width="140" height="140" viewBox="0 0 140 140" fill="none" xmlns="http://www.w3.org/2000/svg">
<circle cx="70" cy="70" r="70" fill="#FB002C"/>
<g clip-path="url(#clip0_671_140)">
<path fill-rule="evenodd" clip-rule="evenodd" d="M56.0114 40.1677C55.8085 39.3568 55.7932 38.5104 55.9665 37.6927C56.1397 36.8751 56.4971 36.1076 57.0114 35.4488C57.5257 34.7899 58.1834 34.2569 58.9346 33.8903C59.6857 33.5237 60.5105 33.3331 61.3464 33.333H78.653C79.4888 33.3331 80.3137 33.5237 81.0648 33.8903C81.816 34.2569 82.4737 34.7899 82.988 35.4488C83.5023 36.1076 83.8596 36.8751 84.0329 37.6927C84.2062 38.5104 84.1908 39.3568 83.988 40.1677L81.1353 51.5783L91.1343 84.9083C91.5551 86.309 91.5473 87.8035 91.1122 89.1998C90.677 90.5961 89.8343 91.8303 88.6923 92.744L72.2913 105.863C71.641 106.384 70.8328 106.668 69.9997 106.668C69.1666 106.668 68.3583 106.384 67.708 105.863L51.307 92.744C50.165 91.8303 49.3223 90.5961 48.8872 89.1998C48.452 87.8035 48.4443 86.309 48.865 84.9083L58.864 51.5783L56.0114 40.1677ZM65.3944 55.333H74.605L77.905 66.333H73.6663C72.6939 66.333 71.7613 66.7193 71.0736 67.4069C70.386 68.0946 69.9997 69.0272 69.9997 69.9997C69.9997 70.9721 70.386 71.9048 71.0736 72.5924C71.7613 73.28 72.6939 73.6663 73.6663 73.6663H80.105L84.109 87.013L69.9997 98.3063L55.8904 87.013L65.3944 55.333ZM76.3027 40.6663L74.4693 47.9997H65.53L63.6967 40.6663H76.3027Z" fill="white"/>
</g>
<defs>
<clipPath id="clip0_671_140">
<rect width="88" height="88" fill="white" transform="translate(26 26)"/>
</clipPath>
</defs>
</svg>
