<?xml version="1.0" standalone="no"?>
<!DOCTYPE svg PUBLIC "-//W3C//DTD SVG 20010904//EN"
 "http://www.w3.org/TR/2001/REC-SVG-20010904/DTD/svg10.dtd">
<svg version="1.0" xmlns="http://www.w3.org/2000/svg"
 width="551.000000pt" height="551.000000pt" viewBox="0 0 551.000000 551.000000"
 preserveAspectRatio="xMidYMid meet">
<metadata>
Created by potrace 1.14, written by Peter Selinger 2001-2017
</metadata>
<g transform="translate(0.000000,551.000000) scale(0.100000,-0.100000)"
fill="#000000" stroke="none">
<path d="M937 4614 c-1 -1 -36 -4 -77 -8 -92 -7 -110 -11 -196 -37 -305 -94
-549 -348 -635 -664 -19 -68 -22 -114 -26 -312 l-5 -233 106 0 106 0 1 183 c1
100 2 193 4 207 21 172 101 331 230 453 95 90 248 166 378 187 38 6 265 10
546 11 l481 1 0 104 c0 76 -3 104 -12 105 -22 1 -900 4 -901 3z"/>
<path d="M3669 4612 c-11 -2 -14 -24 -13 -105 l1 -102 429 -2 c559 -3 566 -3
654 -25 81 -20 219 -85 266 -124 146 -124 235 -260 273 -420 16 -68 20 -121
20 -312 l1 -162 106 1 106 1 -5 231 c-6 268 -14 313 -93 485 -61 134 -203 296
-331 378 -125 81 -277 136 -411 150 -63 6 -972 12 -1003 6z"/>
<path d="M61 2734 c-15 -6 -35 -23 -44 -37 -16 -24 -17 -93 -17 -881 l0 -854
30 -31 c17 -17 45 -33 63 -35 47 -8 1057 0 1092 8 17 4 63 22 104 41 135 64
249 204 280 345 16 73 7 226 -17 293 -50 139 -126 221 -284 311 l-48 27 24 48
c82 161 91 324 26 468 -65 143 -182 247 -325 289 -53 15 -108 18 -458 19 -278
0 -407 -3 -426 -11z m839 -229 c61 -24 134 -97 161 -159 30 -68 30 -163 2
-228 -30 -65 -94 -132 -156 -159 -51 -23 -59 -24 -367 -24 l-315 0 -1 296 -1
297 316 -2 c281 -2 321 -4 361 -21z m288 -823 c204 -109 225 -379 39 -513 -22
-16 -57 -34 -78 -39 -40 -11 -899 -17 -916 -7 -10 6 -15 565 -6 580 3 4 210 7
461 5 454 -3 457 -3 500 -26z"/>
<path d="M5304 2135 c-1 -5 -5 -100 -7 -210 -3 -110 -7 -209 -10 -220 -3 -11
-8 -33 -12 -50 -14 -57 -57 -150 -100 -215 -118 -181 -302 -295 -525 -326 -25
-4 -258 -7 -517 -7 -430 0 -473 -1 -473 -16 -5 -178 -5 -191 10 -192 102 -4
984 1 1023 6 79 10 213 52 291 91 271 136 456 382 510 679 9 50 15 153 16 275
l1 196 -102 -1 c-60 0 -103 -4 -105 -10z"/>
</g>
</svg>
